<!-- created by svgstack.com | Attribution is required. --><svg width="100" height="100" viewBox="0 0 100 100" fill="none" xmlns="http://www.w3.org/2000/svg"><path d="M90.2514 74.4217C88.9182 75.1189 87.5434 75.7333 86.1346 76.2613C81.6506 77.9391 76.9005 78.7939 72.1128 78.7845C53.6306 78.7845 37.5309 66.0711 37.5309 49.7566C37.5546 47.5684 38.1618 45.4262 39.2899 43.5511C40.418 41.676 42.026 40.1359 43.9481 39.0898C27.2313 39.7929 22.9349 57.2127 22.9349 67.4186C22.9349 96.2746 49.5295 99.2001 55.2593 99.2001C58.3488 99.2001 63.0084 98.3017 65.805 97.419L66.3166 97.2472C77.0781 93.5269 86.2522 86.2536 92.3292 76.6246C92.5154 76.3313 92.5985 75.9844 92.5654 75.6386C92.5323 75.2929 92.385 74.968 92.1467 74.7153C91.9083 74.4627 91.5926 74.2966 91.2494 74.2434C90.9061 74.1903 90.555 74.253 90.2514 74.4217Z" fill="url(#paint0_linear_790_701)"/><path opacity="0.35" d="M90.2514 74.4217C88.9182 75.1189 87.5434 75.7333 86.1346 76.2613C81.6506 77.9391 76.9005 78.7939 72.1128 78.7845C53.6306 78.7845 37.5309 66.0711 37.5309 49.7566C37.5546 47.5684 38.1618 45.4262 39.2899 43.5511C40.418 41.676 42.026 40.1359 43.9481 39.0898C27.2313 39.7929 22.9349 57.2127 22.9349 67.4186C22.9349 96.2746 49.5295 99.2001 55.2593 99.2001C58.3488 99.2001 63.0084 98.3017 65.805 97.419L66.3166 97.2472C77.0781 93.5269 86.2522 86.2536 92.3292 76.6246C92.5154 76.3313 92.5985 75.9844 92.5654 75.6386C92.5323 75.2929 92.385 74.968 92.1467 74.7153C91.9083 74.4627 91.5926 74.2966 91.2494 74.2434C90.9061 74.1903 90.555 74.253 90.2514 74.4217Z" fill="url(#paint1_radial_790_701)"/><path d="M41.2961 94.2944C37.8124 92.1322 34.7933 89.299 32.4143 85.9594C29.7029 82.2446 27.837 77.9814 26.9476 73.4691C26.0582 68.9567 26.1668 64.3044 27.2658 59.8385C28.3648 55.3725 30.4276 51.2011 33.3094 47.6168C36.1913 44.0325 39.8224 41.1221 43.9482 39.0897C45.1668 38.5156 47.2486 37.4766 50.0178 37.5274C51.9688 37.5416 53.89 38.0074 55.6308 38.8884C57.3717 39.7693 58.8848 41.0414 60.0518 42.605C61.6291 44.7109 62.4987 47.2624 62.5359 49.8932C62.5359 49.8112 72.0895 18.803 31.2895 18.803C14.143 18.803 0.0430545 35.0746 0.0430545 49.3503C-0.0245786 56.902 1.59121 64.3738 4.77298 71.2228C9.97288 82.3176 19.0661 91.1164 30.3259 95.9485C41.5857 100.781 54.2279 101.31 65.8519 97.4347C61.7819 98.718 57.482 99.1032 53.2486 98.5637C49.0154 98.0243 44.9494 96.573 41.3313 94.3101L41.2961 94.2944Z" fill="url(#paint2_linear_790_701)"/><path opacity="0.41" d="M41.2961 94.2944C37.8124 92.1322 34.7933 89.299 32.4143 85.9594C29.7029 82.2446 27.837 77.9814 26.9476 73.4691C26.0582 68.9567 26.1668 64.3044 27.2658 59.8385C28.3648 55.3725 30.4276 51.2011 33.3094 47.6168C36.1913 44.0325 39.8224 41.1221 43.9482 39.0897C45.1668 38.5156 47.2486 37.4766 50.0178 37.5274C51.9688 37.5416 53.89 38.0074 55.6308 38.8884C57.3717 39.7693 58.8848 41.0414 60.0518 42.605C61.6291 44.7109 62.4987 47.2624 62.5359 49.8932C62.5359 49.8112 72.0895 18.803 31.2895 18.803C14.143 18.803 0.0430545 35.0746 0.0430545 49.3503C-0.0245786 56.902 1.59121 64.3738 4.77298 71.2228C9.97288 82.3176 19.0661 91.1164 30.3259 95.9485C41.5857 100.781 54.2279 101.31 65.8519 97.4347C61.7819 98.718 57.482 99.1032 53.2486 98.5637C49.0154 98.0243 44.9494 96.573 41.3313 94.3101L41.2961 94.2944Z" fill="url(#paint3_radial_790_701)"/><path d="M59.4971 58.1422C59.1807 58.5523 58.2082 59.1187 58.2082 60.3529C58.2082 61.3723 58.8722 62.3527 60.0517 63.1768C65.6682 67.0826 76.2569 66.567 76.2842 66.567C80.4459 66.557 84.5288 65.4308 88.1071 63.3057C91.7168 61.198 94.7128 58.183 96.7976 54.56C98.8825 50.937 99.9839 46.8319 99.9924 42.6518C100.094 33.8989 96.8678 28.0793 95.5632 25.5015C87.2869 9.31191 69.4217 0.000488526 49.9943 0.000488526C36.8559 -0.00081062 24.245 5.16981 14.8892 14.394C5.53345 23.6182 0.184758 36.1546 0 49.2917C0.187478 35.0199 14.3734 23.4939 31.2464 23.4939C32.6134 23.4939 40.4094 23.6267 47.6508 27.427C54.0329 30.7782 57.3762 34.8246 59.7002 38.8359C62.114 43.0033 62.5436 48.2684 62.5436 50.3658C62.5436 52.4632 61.4734 55.5722 59.4971 58.1422Z" fill="url(#paint4_radial_790_701)"/><path d="M59.4971 58.1422C59.1807 58.5523 58.2082 59.1187 58.2082 60.3529C58.2082 61.3723 58.8722 62.3527 60.0517 63.1768C65.6682 67.0826 76.2569 66.567 76.2842 66.567C80.4459 66.557 84.5288 65.4308 88.1071 63.3057C91.7168 61.198 94.7128 58.183 96.7976 54.56C98.8825 50.937 99.9839 46.8319 99.9924 42.6518C100.094 33.8989 96.8678 28.0793 95.5632 25.5015C87.2869 9.31191 69.4217 0.000488526 49.9943 0.000488526C36.8559 -0.00081062 24.245 5.16981 14.8892 14.394C5.53345 23.6182 0.184758 36.1546 0 49.2917C0.187478 35.0199 14.3734 23.4939 31.2464 23.4939C32.6134 23.4939 40.4094 23.6267 47.6508 27.427C54.0329 30.7782 57.3762 34.8246 59.7002 38.8359C62.114 43.0033 62.5436 48.2684 62.5436 50.3658C62.5436 52.4632 61.4734 55.5722 59.4971 58.1422Z" fill="url(#paint5_radial_790_701)"/><defs><linearGradient id="paint0_linear_790_701" x1="22.9349" y1="69.1528" x2="92.5909" y2="69.1528" gradientUnits="userSpaceOnUse"><stop stop-color="#0C59A4"/><stop offset="1" stop-color="#114A8B"/></linearGradient><radialGradient id="paint1_radial_790_701" cx="0" cy="0" r="1" gradientUnits="userSpaceOnUse" gradientTransform="translate(61.407 69.7017) scale(37.2535 35.3908)"><stop offset="0.72" stop-opacity="0"/><stop offset="0.95" stop-opacity="0.53"/><stop offset="1"/></radialGradient><linearGradient id="paint2_linear_790_701" x1="59.6573" y1="38.9374" x2="16.1505" y2="86.3265" gradientUnits="userSpaceOnUse"><stop stop-color="#1B9DE2"/><stop offset="0.16" stop-color="#1595DF"/><stop offset="0.67" stop-color="#0680D7"/><stop offset="1" stop-color="#0078D4"/></linearGradient><radialGradient id="paint3_radial_790_701" cx="0" cy="0" r="1" gradientUnits="userSpaceOnUse" gradientTransform="translate(27.5729 77.7292) rotate(-81.3844) scale(56.0195 45.258)"><stop offset="0.76" stop-opacity="0"/><stop offset="0.95" stop-opacity="0.5"/><stop offset="1"/></radialGradient><radialGradient id="paint4_radial_790_701" cx="0" cy="0" r="1" gradientUnits="userSpaceOnUse" gradientTransform="translate(10.1014 18.5049) rotate(92.2906) scale(79.1283 168.527)"><stop stop-color="#35C1F1"/><stop offset="0.11" stop-color="#34C1ED"/><stop offset="0.23" stop-color="#2FC2DF"/><stop offset="0.31" stop-color="#2BC3D2"/><stop offset="0.67" stop-color="#36C752"/></radialGradient><radialGradient id="paint5_radial_790_701" cx="0" cy="0" r="1" gradientUnits="userSpaceOnUse" gradientTransform="translate(93.7674 30.2338) rotate(73.7398) scale(38.0191 30.9171)"><stop stop-color="#66EB6E"/><stop offset="1" stop-color="#66EB6E" stop-opacity="0"/></radialGradient></defs></svg> 