<!-- created by svgstack.com | Attribution is required. --><svg width="100" height="100" viewBox="0 0 100 100" fill="none" xmlns="http://www.w3.org/2000/svg"><path d="M80.2813 9.30396C77.8488 12.1359 76.7124 18.5182 79.1824 24.9804C81.6478 31.4473 85.4328 30.0431 87.7901 36.6368C90.9035 45.3345 89.4525 57.0237 89.4525 57.0237C89.4525 57.0237 93.1952 67.8582 95.8014 56.3474C101.568 34.7348 80.2813 14.6296 80.2813 9.30396Z" fill="url(#paint0_radial_790_771)"/><path d="M50.5843 99.0564C75.5056 99.0564 95.6934 78.754 95.6934 53.7271C95.6934 28.7001 75.5056 8.39771 50.6077 8.39771C25.7099 8.39771 5.52205 28.6954 5.52205 53.7271C5.47509 78.7822 25.6864 99.0564 50.5843 99.0564Z" fill="url(#paint1_radial_790_771)"/><path d="M84.3855 81.6751C83.4088 82.3655 82.385 82.9807 81.3238 83.5208C82.7325 81.4591 84.0333 79.3222 85.2167 77.1196C86.1794 76.0535 87.0575 75.0203 87.776 73.9026C88.1235 73.3531 88.5179 72.6768 88.9359 71.8879C91.467 67.323 94.2611 59.9403 94.3409 52.3556V52.3369C94.3409 52.149 94.3456 51.9612 94.3409 51.778C94.355 49.876 94.1578 47.9739 93.7586 46.1142C93.7774 46.2598 93.7962 46.4053 93.8149 46.5509C93.7915 46.4382 93.7727 46.3255 93.7492 46.2128C93.7868 46.4194 93.8149 46.6214 93.8478 46.8186C94.3644 51.2097 93.9981 55.4975 92.1526 58.6535C92.1244 58.7004 92.0915 58.7427 92.0634 58.7897C93.0213 53.99 93.3407 48.6878 92.2747 43.3809C92.2747 43.3809 91.8474 40.8026 88.6776 32.969C86.8556 28.4605 83.6154 24.7645 80.7509 22.0734C78.2432 18.9691 75.961 16.884 74.7072 15.5643C72.0822 12.8028 70.9833 10.7317 70.5325 9.37915C70.1427 9.1819 65.1322 4.31646 64.733 4.1333C62.5447 7.52408 55.6699 18.1238 58.9429 28.0331C60.4268 32.5229 64.1742 37.1817 68.0953 39.7976C68.2691 39.9948 70.4292 42.343 71.4576 47.6405C72.5189 53.1118 71.9601 57.3808 69.7765 63.6974C67.2078 69.2391 60.6241 74.7151 54.4583 75.2739C41.2815 76.4715 36.4541 68.6568 36.4541 68.6568C41.1641 70.54 46.3672 70.1455 49.537 68.1918C52.7302 66.2193 54.6602 64.7541 56.224 65.3317C57.7689 65.9047 58.9993 64.2375 57.8957 62.5092C56.1535 59.8276 52.9791 58.4421 49.8281 58.9963C46.6349 59.5176 43.7093 62.0443 39.5205 59.5975C39.2482 59.4425 38.9852 59.2687 38.7363 59.0808C38.4593 58.8977 39.6332 59.3579 39.3609 59.1513C38.5485 58.7098 37.1068 57.7424 36.7312 57.3995C36.6701 57.3432 37.3651 57.6203 37.2994 57.5639C33.3877 54.3422 33.876 52.1631 33.9981 50.7964C34.0967 49.7022 34.8058 48.3027 36.0033 47.7344C36.5809 48.0491 36.9425 48.2933 36.9425 48.2933C36.9425 48.2933 36.6936 47.7908 36.5621 47.5231C36.6091 47.5043 36.6513 47.509 36.6983 47.4902C37.1726 47.7203 38.2198 48.3121 38.7739 48.6737C39.4924 49.1809 39.7225 49.6318 39.7225 49.6318C39.7225 49.6318 39.9103 49.5284 39.7694 49.087C39.7178 48.9038 39.5018 48.3309 38.788 47.7485L38.8302 47.7532C39.2576 47.9974 39.6614 48.2745 40.0371 48.5892C40.239 47.8612 40.6006 47.0957 40.5208 45.7338C40.4738 44.7757 40.4926 44.5268 40.3236 44.1558C40.1733 43.8364 40.4081 43.7143 40.6711 44.0431C40.6241 43.7848 40.549 43.5312 40.4456 43.2916V43.2682C40.7744 42.1269 47.3815 39.1541 47.8605 38.8066C48.6494 38.2477 49.3116 37.5292 49.8046 36.6932C50.1709 36.1062 50.448 35.2843 50.5137 34.0398C50.5513 33.1428 50.1334 32.5417 43.451 31.8419C41.6243 31.6634 40.5537 30.3391 39.9432 29.118C39.8305 28.855 39.7178 28.6155 39.6051 28.376C39.4971 28.0989 39.4078 27.8124 39.3468 27.5212C40.4409 24.3841 42.2724 21.7306 44.9725 19.7253C45.1181 19.5891 44.3855 19.7581 44.5311 19.6266C44.7049 19.4717 45.8225 19.0208 46.0338 18.9175C46.2921 18.7954 44.9303 18.2177 43.7234 18.3586C42.4978 18.4948 42.2348 18.6451 41.5821 18.9222C41.8544 18.6498 42.7185 18.2976 42.5166 18.2976C41.1923 18.4995 39.5534 19.2697 38.1446 20.1385C38.1399 19.9883 38.1728 19.838 38.2292 19.6971C37.5764 19.9742 35.9657 21.0966 35.5008 22.05C35.5196 21.8668 35.529 21.6836 35.529 21.5005C35.0312 21.9185 34.5804 22.3881 34.186 22.9047L34.1625 22.9282C30.3682 21.3972 27.0247 21.2985 24.1977 21.9842C23.5778 21.3643 23.2773 21.8151 21.8685 18.7249C21.7746 18.5371 21.9437 18.9081 21.8685 18.7249C21.6384 18.1238 22.0094 19.5233 21.8685 18.7249C19.5018 20.5941 16.3884 22.7075 14.8951 24.2009C14.8763 24.2619 16.6373 23.7031 14.8951 24.2009C14.2846 24.3747 14.3269 24.7363 14.2329 28.0144C14.2095 28.2633 14.2282 28.5403 14.2095 28.7658C13.0167 30.2874 12.2043 31.5742 11.8944 32.2411C10.3494 34.9039 8.64947 39.0508 7.00119 45.6117C7.72906 43.8317 8.60251 42.1176 9.62153 40.4879C8.25031 43.9726 6.92606 49.4392 6.66309 57.8598C6.9965 56.1221 7.41913 54.4033 7.93568 52.7126C7.61166 59.7008 8.81852 66.6749 11.467 73.1465C12.4156 75.4665 13.984 78.9841 16.6513 82.8445C25.0383 91.669 36.8673 97.1637 49.969 97.1637C63.6624 97.1637 75.9469 91.1805 84.3855 81.6751Z" fill="url(#paint2_linear_790_771)"/><path d="M74.2657 88.0856C90.8189 86.1695 98.1446 69.1122 88.7339 68.7741C80.2343 68.5064 66.4235 88.992 74.2657 88.0856Z" fill="url(#paint3_radial_790_771)"/><path d="M89.9269 65.2942C101.315 58.6676 98.3468 44.3484 98.3468 44.3484C98.3468 44.3484 93.9514 49.4534 90.9647 57.5922C88.0156 65.6512 83.0801 69.2955 89.9269 65.2942Z" fill="url(#paint4_radial_790_771)"/><path d="M53.7727 96.5576C69.6497 101.625 83.2961 89.114 74.8857 84.9389C67.236 81.1725 46.2404 94.1625 53.7727 96.5576Z" fill="url(#paint5_radial_790_771)"/><path d="M91.1101 71.3714C91.4952 70.8266 92.0164 69.0795 92.4813 68.2999C95.2848 63.7726 95.3036 60.1658 95.3036 60.086C96.9988 51.6278 96.8439 48.1759 95.8014 41.7889C94.9608 36.6463 91.298 29.2777 88.1235 25.732C84.8504 22.0782 87.1561 23.2664 83.9864 20.5988C81.2111 17.518 78.5156 14.4701 77.0505 13.2443C66.4517 4.38224 66.6912 2.499 66.8932 2.17964C66.8603 2.21721 66.8086 2.27357 66.7429 2.34871C66.6161 1.8462 66.5269 1.42822 66.5269 1.42822C66.5269 1.42822 60.7321 7.22355 59.5159 16.8746C58.7175 23.1771 61.0796 29.7474 64.4935 33.9506C66.2733 36.125 68.2832 38.1022 70.4902 39.8446V39.8399C73.073 43.5453 74.4912 48.1196 74.4912 53.0414C74.4912 65.3647 64.4982 75.3539 52.1714 75.3539C50.4903 75.3539 48.8185 75.166 47.1796 74.795C41.3614 73.6867 38.0038 70.7514 36.3273 68.7602C35.3693 67.6189 34.9608 66.7877 34.9608 66.7877C40.1733 68.6568 45.9352 68.2624 49.4384 66.3274C52.9697 64.3691 55.1064 62.9179 56.8392 63.4908C58.5485 64.0591 59.9103 62.406 58.6894 60.6918C57.4919 58.9776 54.3785 56.5261 49.7577 57.2071C46.2216 57.7237 42.9814 60.2315 38.3513 57.7988C38.0507 57.6438 37.7643 57.4748 37.4825 57.2869C37.1773 57.1085 38.4733 57.5593 38.1728 57.3574C37.2712 56.9206 35.6746 55.9625 35.2613 55.6244C35.1909 55.568 35.961 55.8451 35.8906 55.7888C31.5609 52.5905 32.101 50.4349 32.2371 49.0777C32.3452 47.9928 33.1341 46.6074 34.4583 46.0438C35.097 46.3585 35.4961 46.598 35.4961 46.598C35.4961 46.598 35.2238 46.1002 35.0735 45.8325C35.1251 45.8137 35.1768 45.8184 35.2238 45.7996C35.7497 46.025 36.9096 46.6168 37.5201 46.9737C38.3137 47.4762 38.5673 47.927 38.5673 47.927C38.5673 47.927 38.7786 47.8237 38.6236 47.387C38.5673 47.2085 38.3278 46.6355 37.5389 46.0579L37.5858 46.0626C38.0554 46.3021 38.5015 46.5792 38.9195 46.8938C39.1402 46.1706 39.5393 45.4145 39.4548 44.0619C39.4031 43.1133 39.4266 42.8643 39.2388 42.498C39.0697 42.1834 39.3327 42.0613 39.6239 42.3853C39.5722 42.127 39.4924 41.8781 39.375 41.6386L39.3797 41.6151C39.7413 40.4833 47.0575 37.5387 47.5882 37.1911C48.4475 36.651 49.1801 35.9372 49.7389 35.0965C50.1474 34.5142 50.4527 33.7017 50.5278 32.4666C50.5513 31.9077 50.3822 31.4709 48.4428 31.0483C47.2782 30.7947 45.4797 30.5505 42.7091 30.2875C40.6851 30.109 39.5018 28.794 38.8255 27.5823C38.7034 27.3193 38.5767 27.0845 38.4499 26.8497C38.3325 26.5726 38.2339 26.2908 38.1634 25.9997C39.3797 22.8249 41.5586 20.1198 44.3996 18.2647C44.564 18.1332 43.7469 18.2976 43.9112 18.1661C44.0991 18.0111 45.3388 17.565 45.5736 17.4617C45.8601 17.3395 44.348 16.7666 43.019 16.9075C41.6619 17.0437 41.3754 17.1893 40.6476 17.4663C40.9481 17.1987 41.9061 16.8464 41.6807 16.8511C40.2155 17.0531 38.3982 17.8139 36.8439 18.678C36.8392 18.5277 36.872 18.3774 36.9378 18.2412C36.2146 18.5183 34.4348 19.6314 33.9183 20.5753C33.9418 20.3969 33.9512 20.2137 33.9465 20.0306C33.4017 20.4392 32.904 20.9041 32.4625 21.4207L32.4344 21.4442C28.2315 19.9272 24.5358 19.8286 21.4036 20.5096C20.718 19.8944 19.6192 18.9598 18.0601 15.8978C17.9521 15.7146 17.8957 16.2782 17.8159 16.095C17.2101 14.6908 16.8439 12.3896 16.9049 10.8069C16.9049 10.8069 15.6511 11.3751 14.618 13.7609C14.4255 14.1883 14.3034 14.4278 14.1813 14.6626C14.1249 14.7331 14.3081 13.8783 14.2799 13.9253C14.1014 14.2305 13.6318 14.6579 13.4299 15.2074C13.289 15.616 13.0918 15.8461 12.965 16.3533L12.9368 16.4003C12.9274 16.25 12.9744 15.7803 12.9415 15.879C12.4579 16.8605 12.0399 17.8749 11.6924 18.9128C11.1336 20.7491 10.4856 23.2429 10.3822 26.4928C10.3588 26.737 10.3776 27.0141 10.3588 27.2348C9.03921 28.7423 8.13759 30.0198 7.79948 30.6819C6.08547 33.3119 4.20239 37.4259 2.37568 43.9304C3.18807 42.1552 4.16013 40.4504 5.27776 38.8489C3.76098 42.3008 2.29584 47.7251 2 56.08C2.36628 54.3517 2.84057 52.6469 3.40878 50.975C3.14581 56.5449 3.79385 63.4486 7.3158 71.2399C9.40549 75.8235 14.2188 85.127 25.9775 92.3876C37.7361 99.6482 29.9784 95.3651 36.8533 97.5959C37.3604 97.7791 37.877 97.9622 38.4029 98.136C38.2432 98.0703 38.0836 97.9998 37.9239 97.9294C42.5025 99.3007 47.2501 100 52.0305 100C69.8328 100.015 75.0829 92.8667 75.0829 92.8667C75.0829 92.8667 75.0641 92.8808 75.0312 92.9042C75.2801 92.6694 75.5243 92.4205 75.7591 92.1669C72.9509 94.8204 66.541 94.9941 64.1413 94.8063C68.2268 93.604 70.9176 92.5896 76.1489 90.5842C76.7593 90.3588 77.3886 90.1005 78.0272 89.8093C78.0977 89.7812 78.1681 89.7436 78.2339 89.7154C78.3606 89.6544 78.4874 89.6027 78.6142 89.5369C81.1641 88.3347 83.559 86.8365 85.7567 85.066C91.0115 80.8674 92.1526 76.7769 92.7537 74.0812C92.6692 74.3395 92.4109 74.9406 92.2278 75.3351C90.8753 78.2281 87.8746 80.008 84.6156 81.5296C86.1653 79.4961 87.6022 77.378 88.9218 75.1848C89.9831 74.1328 90.3165 72.4797 91.1101 71.3714Z" fill="url(#paint6_radial_790_771)"/><path d="M84.7144 81.4074C86.8557 79.0451 88.7811 76.3447 90.2368 73.278C93.9889 65.3928 99.7837 52.2805 95.2192 38.5906C91.608 27.7701 86.6538 21.8527 80.3659 16.0715C70.1475 6.68343 67.2924 2.49426 67.2924 0.000488281C67.2924 0.000488281 55.4962 13.155 60.6101 26.8684C65.724 40.5818 76.2053 40.084 83.1365 54.3986C91.2934 71.2445 76.534 89.626 64.3293 94.7733C65.0759 94.6089 91.4577 88.6351 92.8477 73.5457C92.8196 73.8228 92.2232 77.9931 84.7144 81.4074Z" fill="url(#paint7_radial_790_771)"/><path d="M50.5324 32.4571C50.5747 31.5648 50.1098 30.9683 42.7419 30.278C39.7083 29.9962 38.5484 27.1972 38.1962 26.0137C37.1162 28.8174 36.6747 31.7526 36.9142 35.3125C37.0786 37.6419 38.6423 40.1404 39.389 41.6103C39.389 41.6103 39.5533 41.3943 39.6332 41.3144C41.042 39.8492 46.9447 37.6137 47.4988 37.2944C48.1046 36.9093 50.4338 35.2092 50.5324 32.4571Z" fill="url(#paint8_linear_790_771)"/><path d="M18.0882 15.9024C17.9802 15.7192 17.9239 16.2828 17.844 16.0997C17.2383 14.6954 16.872 12.4224 16.9565 10.8115C16.9565 10.8115 15.7027 11.3798 14.6696 13.7655C14.4771 14.1929 14.355 14.4324 14.2329 14.6673C14.1765 14.7377 14.3597 13.883 14.3315 13.9299C14.153 14.2352 13.6834 14.6626 13.4815 15.1886C13.3125 15.6206 13.1434 15.8507 13.0119 16.3861C12.9744 16.5317 13.0495 15.7427 13.0166 15.8414C10.6076 20.5002 10.1474 27.54 10.401 27.2442C15.529 21.7682 21.4083 20.4673 21.4083 20.4673C20.7884 20.0023 19.4266 18.6733 18.0882 15.9024Z" fill="url(#paint9_linear_790_771)"/><path d="M37.5529 73.1887C30.4667 70.1642 22.4132 65.8952 22.7137 56.2019C23.127 43.4372 34.6179 45.9591 34.6179 45.9591C34.1859 46.0625 33.026 46.889 32.6128 47.7719C32.1807 48.8709 31.3871 51.3553 33.7868 53.9617C37.5576 58.0476 26.0432 63.655 43.8126 74.2453C44.2634 74.4848 39.652 74.095 37.5529 73.1887Z" fill="url(#paint10_linear_790_771)"/><path d="M35.0359 66.8244C40.0605 68.5713 45.9117 68.2661 49.4196 66.3314C51.7675 65.0259 54.773 62.9315 56.6279 63.448C55.0265 62.8141 53.8103 62.5182 52.3498 62.4478C52.101 62.4478 51.8051 62.4431 51.5327 62.4149C50.9974 62.4149 50.4621 62.4431 49.9314 62.5042C49.0251 62.5887 48.0249 63.1569 47.1139 63.0677C47.0669 63.063 47.9967 62.6826 47.9216 62.7014C47.4379 62.8 46.9119 62.8235 46.3578 62.8939C46.0056 62.9315 45.7004 62.9784 45.3529 62.9925C34.8856 63.8801 26.0431 57.3198 26.0431 57.3198C25.2871 59.8509 29.4101 64.8662 35.0359 66.8244Z" fill="url(#paint11_linear_790_771)"/><path d="M84.6956 81.4732C95.2802 71.0801 100.638 58.4469 98.3702 44.2732C98.3702 44.2732 99.2765 51.5385 95.8438 58.9729C97.492 51.717 97.6846 42.6999 93.3079 33.3635C87.4662 20.8993 77.8583 14.3432 74.186 11.6052C68.6307 7.45831 66.325 3.24096 66.2828 2.36743C64.6204 5.76761 59.6004 17.4287 65.7427 27.4696C71.5 36.8764 80.5678 39.6708 86.9121 48.298C98.6097 64.1999 84.6956 81.4732 84.6956 81.4732Z" fill="url(#paint12_linear_790_771)"/><path d="M83.1785 54.4315C79.4781 46.7905 74.862 43.456 70.4948 39.8398C71.002 40.549 71.1288 40.8026 71.4105 41.2628C75.2565 45.3581 80.9245 55.3566 76.8061 67.9006C69.0579 91.5187 38.0741 80.3977 34.8245 77.2746C36.1393 90.941 59.0132 97.483 73.9088 88.621C82.3849 80.5949 89.241 66.9567 83.1785 54.4315Z" fill="url(#paint13_linear_790_771)"/><defs><radialGradient id="paint0_radial_790_771" cx="0" cy="0" r="1" gradientUnits="userSpaceOnUse" gradientTransform="translate(94.3118 25.0076) rotate(2.55508) scale(34.9488 51.3744)"><stop offset="0.045" stop-color="#FFEA00"/><stop offset="0.12" stop-color="#FFDE00"/><stop offset="0.254" stop-color="#FFBF00"/><stop offset="0.429" stop-color="#FF8E00"/><stop offset="0.769" stop-color="#FF272D"/><stop offset="0.872" stop-color="#E0255A"/><stop offset="0.953" stop-color="#CC2477"/><stop offset="1" stop-color="#C42482"/></radialGradient><radialGradient id="paint1_radial_790_771" cx="0" cy="0" r="1" gradientUnits="userSpaceOnUse" gradientTransform="translate(69.3893 19.6276) scale(98.5004 98.5095)"><stop stop-color="#00CCDA"/><stop offset="0.22" stop-color="#0083FF"/><stop offset="0.261" stop-color="#007AF9"/><stop offset="0.33" stop-color="#0060E8"/><stop offset="0.333" stop-color="#005FE7"/><stop offset="0.438" stop-color="#2639AD"/><stop offset="0.522" stop-color="#401E84"/><stop offset="0.566" stop-color="#4A1475"/></radialGradient><linearGradient id="paint2_linear_790_771" x1="56.9433" y1="74.1096" x2="37.4852" y2="10.4645" gradientUnits="userSpaceOnUse"><stop stop-color="#000F43" stop-opacity="0.4"/><stop offset="0.485" stop-color="#001962" stop-opacity="0.173"/><stop offset="1" stop-color="#002079" stop-opacity="0"/></linearGradient><radialGradient id="paint3_radial_790_771" cx="0" cy="0" r="1" gradientUnits="userSpaceOnUse" gradientTransform="translate(84.1338 51.4122) rotate(5.67027) scale(33.224 33.2271)"><stop offset="0.003" stop-color="#FFEA00"/><stop offset="0.497" stop-color="#FF272D"/><stop offset="1" stop-color="#C42482"/></radialGradient><radialGradient id="paint4_radial_790_771" cx="0" cy="0" r="1" gradientUnits="userSpaceOnUse" gradientTransform="translate(84.2901 19.4104) rotate(5.67019) scale(55.4822 55.4867)"><stop offset="0.003" stop-color="#FFE900"/><stop offset="0.157" stop-color="#FFAF0E"/><stop offset="0.316" stop-color="#FF7A1B"/><stop offset="0.472" stop-color="#FF4E26"/><stop offset="0.621" stop-color="#FF2C2E"/><stop offset="0.762" stop-color="#FF1434"/><stop offset="0.892" stop-color="#FF0538"/><stop offset="1" stop-color="#FF0039"/></radialGradient><radialGradient id="paint5_radial_790_771" cx="0" cy="0" r="1" gradientUnits="userSpaceOnUse" gradientTransform="translate(87.0179 71.3692) rotate(5.67019) scale(50.9105 50.9145)"><stop offset="0.003" stop-color="#FF272D"/><stop offset="0.497" stop-color="#C42482"/><stop offset="0.986" stop-color="#620700"/></radialGradient><radialGradient id="paint6_radial_790_771" cx="0" cy="0" r="1" gradientUnits="userSpaceOnUse" gradientTransform="translate(74.681 40.0467) scale(79.4889 79.4963)"><stop offset="0.156" stop-color="#FFEA00"/><stop offset="0.231" stop-color="#FFDE00"/><stop offset="0.365" stop-color="#FFBF00"/><stop offset="0.541" stop-color="#FF8E00"/><stop offset="0.763" stop-color="#FF272D"/><stop offset="0.796" stop-color="#F92433"/><stop offset="0.841" stop-color="#E91C45"/><stop offset="0.893" stop-color="#CF0E62"/><stop offset="0.935" stop-color="#B5007F"/></radialGradient><radialGradient id="paint7_radial_790_771" cx="0" cy="0" r="1" gradientUnits="userSpaceOnUse" gradientTransform="translate(68.7004 0.129591) scale(93.8623 93.8709)"><stop offset="0.279" stop-color="#FFEA00"/><stop offset="0.402" stop-color="#FFDD00"/><stop offset="0.63" stop-color="#FFBA00"/><stop offset="0.856" stop-color="#FF9100"/><stop offset="0.933" stop-color="#FF6711"/><stop offset="0.994" stop-color="#FF4A1D"/></radialGradient><linearGradient id="paint8_linear_790_771" x1="3.86254" y1="39.1334" x2="39.9803" y2="33.652" gradientUnits="userSpaceOnUse"><stop stop-color="#C42482" stop-opacity="0.5"/><stop offset="0.474" stop-color="#FF272D" stop-opacity="0.5"/><stop offset="0.486" stop-color="#FF2C2C" stop-opacity="0.513"/><stop offset="0.675" stop-color="#FF7A1A" stop-opacity="0.72"/><stop offset="0.829" stop-color="#FFB20D" stop-opacity="0.871"/><stop offset="0.942" stop-color="#FFD605" stop-opacity="0.964"/><stop offset="1" stop-color="#FFE302"/></linearGradient><linearGradient id="paint9_linear_790_771" x1="16.5545" y1="26.2047" x2="12.4548" y2="11.5087" gradientUnits="userSpaceOnUse"><stop stop-color="#891551" stop-opacity="0.6"/><stop offset="1" stop-color="#C42482" stop-opacity="0"/></linearGradient><linearGradient id="paint10_linear_790_771" x1="24.4101" y1="47.6749" x2="32.8424" y2="59.4384" gradientUnits="userSpaceOnUse"><stop offset="0.005" stop-color="#891551" stop-opacity="0.5"/><stop offset="0.484" stop-color="#FF272D" stop-opacity="0.5"/><stop offset="1" stop-color="#FF272D" stop-opacity="0"/></linearGradient><linearGradient id="paint11_linear_790_771" x1="40.5144" y1="68.2989" x2="41.28" y2="60.7378" gradientUnits="userSpaceOnUse"><stop stop-color="#C42482"/><stop offset="0.083" stop-color="#C42482" stop-opacity="0.81"/><stop offset="0.206" stop-color="#C42482" stop-opacity="0.565"/><stop offset="0.328" stop-color="#C42482" stop-opacity="0.362"/><stop offset="0.447" stop-color="#C42482" stop-opacity="0.204"/><stop offset="0.562" stop-color="#C42482" stop-opacity="0.091"/><stop offset="0.673" stop-color="#C42482" stop-opacity="0.023"/><stop offset="0.773" stop-color="#C42482" stop-opacity="0"/></linearGradient><linearGradient id="paint12_linear_790_771" x1="65.0614" y1="3.66958" x2="96.1284" y2="73.134" gradientUnits="userSpaceOnUse"><stop stop-color="#FFF14F"/><stop offset="0.268" stop-color="#FFEE4C"/><stop offset="0.452" stop-color="#FFE643"/><stop offset="0.612" stop-color="#FFD834"/><stop offset="0.757" stop-color="#FFC41E"/><stop offset="0.892" stop-color="#FFAB02"/><stop offset="0.902" stop-color="#FFA900"/><stop offset="0.949" stop-color="#FFA000"/><stop offset="1" stop-color="#FF9100"/></linearGradient><linearGradient id="paint13_linear_790_771" x1="71.1947" y1="43.621" x2="56.4784" y2="83.1304" gradientUnits="userSpaceOnUse"><stop stop-color="#FF8E00"/><stop offset="0.04" stop-color="#FF8E00" stop-opacity="0.858"/><stop offset="0.084" stop-color="#FF8E00" stop-opacity="0.729"/><stop offset="0.13" stop-color="#FF8E00" stop-opacity="0.628"/><stop offset="0.178" stop-color="#FF8E00" stop-opacity="0.557"/><stop offset="0.227" stop-color="#FF8E00" stop-opacity="0.514"/><stop offset="0.282" stop-color="#FF8E00" stop-opacity="0.5"/><stop offset="0.389" stop-color="#FF8E00" stop-opacity="0.478"/><stop offset="0.524" stop-color="#FF8E00" stop-opacity="0.416"/><stop offset="0.676" stop-color="#FF8E00" stop-opacity="0.314"/><stop offset="0.838" stop-color="#FF8E00" stop-opacity="0.172"/><stop offset="1" stop-color="#FF8E00" stop-opacity="0"/></linearGradient></defs></svg> 